<svg width="29" height="33" viewBox="0 0 29 33" fill="none" xmlns="http://www.w3.org/2000/svg">
<path d="M8.23841 5.25574H6.96701C5.18646 5.25574 4.29552 5.25574 3.61544 5.60226C3.01722 5.90706 2.53121 6.39308 2.2264 6.99129C1.87988 7.67137 1.87988 8.56232 1.87988 10.3429V11.6143M8.23841 5.25574H20.9555M8.23841 5.25574V2.07648M20.9555 5.25574H22.2275C24.008 5.25574 24.8971 5.25574 25.5771 5.60226C26.1754 5.90706 26.663 6.39308 26.9678 6.99129C27.314 7.67071 27.314 8.56057 27.314 10.3376V11.6143M20.9555 5.25574V2.07648M1.87988 11.6143V25.6033C1.87988 27.3839 1.87988 28.2737 2.2264 28.9538C2.53121 29.552 3.01722 30.0388 3.61544 30.3437C4.29485 30.6898 5.18472 30.6898 6.96179 30.6898H22.2321C24.0091 30.6898 24.8977 30.6898 25.5771 30.3437C26.1754 30.0388 26.663 29.552 26.9678 28.9538C27.314 28.2744 27.314 27.3858 27.314 25.6087V11.6143M1.87988 11.6143H27.314M20.9555 24.3313H20.9586L20.9586 24.3345L20.9555 24.3344V24.3313ZM14.5969 24.3313H14.6001L14.6 24.3345L14.5969 24.3344V24.3313ZM8.23841 24.3313H8.24159L8.24151 24.3345L8.23841 24.3344V24.3313ZM20.9586 17.9728V17.976L20.9555 17.9759V17.9728H20.9586ZM14.5969 17.9728H14.6001L14.6 17.976L14.5969 17.9759V17.9728ZM8.23841 17.9728H8.24159L8.24151 17.976L8.23841 17.9759V17.9728Z" stroke="white" stroke-width="2.93199" stroke-linecap="round" stroke-linejoin="round"/>
</svg>
