<svg width="39" height="39" viewBox="0 0 39 39" fill="none" xmlns="http://www.w3.org/2000/svg">
<path d="M4.3252 17.519C4.3252 15.573 5.21631 13.7341 6.7437 12.5283L15.4867 5.62593C17.7968 3.80216 21.0566 3.80215 23.3667 5.62593L32.1097 12.5283C33.6371 13.7341 34.5282 15.573 34.5282 17.519V27.9495C34.5282 31.4612 31.6814 34.308 28.1697 34.308H25.7852C24.9073 34.308 24.1956 33.5963 24.1956 32.7184V27.9495C24.1956 26.1936 22.7722 24.7702 21.0163 24.7702H17.8371C16.0812 24.7702 14.6578 26.1936 14.6578 27.9495V32.7184C14.6578 33.5963 13.9461 34.308 13.0682 34.308H10.6837C7.172 34.308 4.3252 31.4612 4.3252 27.9495L4.3252 17.519Z" stroke="white" stroke-width="3.17926"/>
</svg>
