<svg width="143" height="41" viewBox="0 0 143 41" fill="none" xmlns="http://www.w3.org/2000/svg">
<path d="M2 28.325L19.4059 14.2052C19.9404 13.7716 20.6077 13.535 21.2959 13.535H27.4877H33.4553C34.2777 13.535 35.064 13.1974 35.6304 12.6011L45.7 2" stroke="#D6FF5F" stroke-width="4" stroke-linecap="round"/>
<path d="M10.9861 39H54C55.6569 39 57 37.6569 57 36V11.012C57 8.12778 53.3273 6.90517 51.5986 9.21396L42.3166 21.6106C41.7501 22.3671 40.8603 22.8125 39.9152 22.8125H24.5432C23.8932 22.8125 23.2607 23.0237 22.741 23.4142L9.18388 33.6017C6.88018 35.3328 8.10448 39 10.9861 39Z" stroke="#D6FF5F" stroke-width="4"/>
<path d="M64.944 11.894H70.673V14.036H64.944V11.894ZM65.148 16.79H71.625V19H62.411V7.1H71.404V9.31H65.148V16.79ZM73.8163 19V7.1H76.5703V16.756H82.5373V19H73.8163ZM86.609 11.894H92.338V14.036H86.609V11.894ZM86.813 16.79H93.29V19H84.076V7.1H93.069V9.31H86.813V16.79ZM98.8853 19L93.7513 7.1H96.7263L101.214 17.64H99.4633L104.019 7.1H106.756L101.605 19H98.8853ZM105.787 19L111.091 7.1H113.811L119.132 19H116.242L111.89 8.494H112.978L108.609 19H105.787ZM108.439 16.45L109.17 14.359H115.29L116.038 16.45H108.439ZM122.234 19V9.344H118.426V7.1H128.796V9.344H124.988V19H122.234ZM132.811 11.894H138.54V14.036H132.811V11.894ZM133.015 16.79H139.492V19H130.278V7.1H139.271V9.31H133.015V16.79ZM68.106 40.204C67.188 40.204 66.3323 40.0567 65.539 39.762C64.757 39.456 64.077 39.0253 63.499 38.47C62.921 37.9147 62.4677 37.263 62.139 36.515C61.8217 35.767 61.663 34.9453 61.663 34.05C61.663 33.1547 61.8217 32.333 62.139 31.585C62.4677 30.837 62.921 30.1853 63.499 29.63C64.0883 29.0747 64.774 28.6497 65.556 28.355C66.338 28.049 67.1937 27.896 68.123 27.896C69.1543 27.896 70.0837 28.0773 70.911 28.44C71.7497 28.7913 72.4523 29.3127 73.019 30.004L71.251 31.636C70.843 31.1713 70.3897 30.8257 69.891 30.599C69.3923 30.361 68.8483 30.242 68.259 30.242C67.7037 30.242 67.1937 30.3327 66.729 30.514C66.2643 30.6953 65.862 30.956 65.522 31.296C65.182 31.636 64.9157 32.0383 64.723 32.503C64.5417 32.9677 64.451 33.4833 64.451 34.05C64.451 34.6167 64.5417 35.1323 64.723 35.597C64.9157 36.0617 65.182 36.464 65.522 36.804C65.862 37.144 66.2643 37.4047 66.729 37.586C67.1937 37.7673 67.7037 37.858 68.259 37.858C68.8483 37.858 69.3923 37.7447 69.891 37.518C70.3897 37.28 70.843 36.923 71.251 36.447L73.019 38.079C72.4523 38.7703 71.7497 39.2973 70.911 39.66C70.0837 40.0227 69.1487 40.204 68.106 40.204ZM74.8788 40V28.1H77.6328V37.756H83.5998V40H74.8788ZM90.2927 40.204C88.6041 40.204 87.2837 39.7337 86.3317 38.793C85.3797 37.8523 84.9037 36.5093 84.9037 34.764V28.1H87.6577V34.662C87.6577 35.7953 87.8901 36.6113 88.3547 37.11C88.8194 37.6087 89.4711 37.858 90.3097 37.858C91.1484 37.858 91.8001 37.6087 92.2647 37.11C92.7294 36.6113 92.9617 35.7953 92.9617 34.662V28.1H95.6817V34.764C95.6817 36.5093 95.2057 37.8523 94.2537 38.793C93.3017 39.7337 91.9814 40.204 90.2927 40.204ZM98.4032 40V28.1H104.217C105.713 28.1 106.835 28.3833 107.583 28.95C108.343 29.5167 108.722 30.2647 108.722 31.194C108.722 31.8173 108.569 32.3613 108.263 32.826C107.957 33.2793 107.538 33.6307 107.005 33.88C106.473 34.1293 105.861 34.254 105.169 34.254L105.492 33.557C106.24 33.557 106.903 33.6817 107.481 33.931C108.059 34.169 108.507 34.526 108.824 35.002C109.153 35.478 109.317 36.0617 109.317 36.753C109.317 37.773 108.915 38.572 108.11 39.15C107.306 39.7167 106.121 40 104.557 40H98.4032ZM101.14 37.926H104.353C105.067 37.926 105.606 37.8127 105.968 37.586C106.342 37.348 106.529 36.974 106.529 36.464C106.529 35.9653 106.342 35.597 105.968 35.359C105.606 35.1097 105.067 34.985 104.353 34.985H100.936V32.979H103.877C104.546 32.979 105.056 32.8657 105.407 32.639C105.77 32.401 105.951 32.044 105.951 31.568C105.951 31.1033 105.77 30.7577 105.407 30.531C105.056 30.293 104.546 30.174 103.877 30.174H101.14V37.926Z" fill="#D6FF5F"/>
</svg>
