<svg width="32" height="28" viewBox="0 0 32 28" fill="none" xmlns="http://www.w3.org/2000/svg">
<path d="M24.2548 25.8445C24.2548 23.2107 20.6963 21.0756 16.3067 21.0756C11.917 21.0756 8.35852 23.2107 8.35852 25.8445M30.6134 21.0762C30.6134 19.1206 28.6516 17.44 25.8445 16.7041M2 21.0762C2 19.1206 3.96176 17.44 6.76889 16.7041M25.8445 10.3235C26.8201 9.45026 27.4341 8.18128 27.4341 6.76889C27.4341 4.13511 25.299 2 22.6652 2C21.4438 2 20.3296 2.45917 19.4859 3.21431M6.76889 10.3235C5.79326 9.45026 5.17926 8.18128 5.17926 6.76889C5.17926 4.13511 7.31437 2 9.94815 2C11.1696 2 12.2837 2.45917 13.1274 3.21431M16.3067 16.3067C13.6729 16.3067 11.5378 14.1716 11.5378 11.5378C11.5378 8.904 13.6729 6.76889 16.3067 6.76889C18.9405 6.76889 21.0756 8.904 21.0756 11.5378C21.0756 14.1716 18.9405 16.3067 16.3067 16.3067Z" stroke="white" stroke-width="2.47276" stroke-linecap="round" stroke-linejoin="round"/>
</svg>
